<?xml version="1.0" encoding="utf-8"?>
<!-- Generator: Adobe Illustrator 16.0.0, SVG Export Plug-In . SVG Version: 6.00 Build 0)  -->
<!DOCTYPE svg PUBLIC "-//W3C//DTD SVG 1.1//EN" "http://www.w3.org/Graphics/SVG/1.1/DTD/svg11.dtd">
<svg version="1.1" id="Layer_1" xmlns="http://www.w3.org/2000/svg" xmlns:xlink="http://www.w3.org/1999/xlink" x="0px" y="0px"
	 width="255px" height="240px" viewBox="0 0 255 240" enable-background="new 0 0 255 240" xml:space="preserve">
<title>Five Pointed Star</title>
<g>
	<g>
		<path fill="#224099" d="M108.66,82.54c-0.255,0-0.498-0.115-0.657-0.313L87.922,57.302c-0.231-0.283-0.251-0.682-0.051-0.988
			c0.199-0.306,0.57-0.45,0.922-0.357l12.907,3.391L97.665,0.902c-0.016-0.233,0.065-0.463,0.225-0.634
			C98.05,0.097,98.273,0,98.506,0h20.305c0.234,0,0.457,0.097,0.617,0.269c0.16,0.171,0.241,0.4,0.225,0.634l-4.035,58.445
			l12.907-3.391c0.353-0.091,0.724,0.051,0.923,0.357c0.198,0.306,0.177,0.705-0.051,0.988l-20.081,24.924
			C109.157,82.425,108.915,82.54,108.66,82.54z"/>
	</g>
	<g>
		<path fill="#EE4F84" d="M173.173,106.321c-0.043,0-0.087-0.003-0.13-0.01l-31.621-4.951c-0.252-0.039-0.473-0.191-0.601-0.412
			c-0.126-0.222-0.147-0.489-0.055-0.727l11.566-29.842c0.129-0.341,0.471-0.557,0.829-0.538c0.364,0.019,0.675,0.27,0.771,0.621
			l3.508,12.876l48.623-32.684c0.191-0.13,0.433-0.174,0.662-0.12c0.226,0.052,0.423,0.197,0.539,0.4l10.138,17.591
			c0.119,0.203,0.146,0.444,0.078,0.669c-0.069,0.223-0.229,0.409-0.438,0.511l-52.652,25.69l9.383,9.489
			c0.257,0.26,0.318,0.654,0.151,0.979C173.778,106.146,173.486,106.321,173.173,106.321z"/>
	</g>
	<g>
		<path fill="#FFDD15" d="M206.54,188.583c-0.169,0-0.334-0.049-0.477-0.144l-48.548-32.788l-3.535,12.867
			c-0.097,0.352-0.409,0.603-0.773,0.62c-0.361,0.016-0.697-0.199-0.828-0.54l-11.502-29.868c-0.09-0.238-0.068-0.505,0.059-0.726
			c0.128-0.222,0.349-0.373,0.602-0.412l31.63-4.883c0.36-0.054,0.717,0.128,0.883,0.451c0.165,0.325,0.103,0.72-0.154,0.978
			l-9.404,9.471l52.598,25.803c0.209,0.104,0.366,0.289,0.433,0.514c0.069,0.224,0.043,0.466-0.075,0.667l-10.179,17.569
			c-0.119,0.203-0.312,0.347-0.539,0.399C206.664,188.576,206.601,188.583,206.54,188.583z"/>
	</g>
	<g>
		<path fill="#00A14B" d="M118.861,239.17h-0.001l-20.305-0.044c-0.233-0.001-0.457-0.099-0.617-0.27
			c-0.158-0.171-0.239-0.401-0.223-0.634l4.164-58.438l-12.916,3.362c-0.353,0.093-0.725-0.052-0.922-0.359
			c-0.197-0.307-0.177-0.704,0.052-0.988l20.137-24.879c0.16-0.197,0.4-0.313,0.654-0.313h0.003
			c0.255,0.001,0.496,0.117,0.657,0.316l20.025,24.968c0.229,0.284,0.248,0.682,0.05,0.987c-0.199,0.307-0.57,0.448-0.925,0.355
			l-12.899-3.419l3.908,58.455c0.016,0.232-0.065,0.463-0.225,0.633C119.318,239.074,119.095,239.17,118.861,239.17z"/>
	</g>
	<g>
		<path fill="#803292" d="M10.945,188.425c-0.064,0-0.129-0.007-0.192-0.023c-0.229-0.052-0.423-0.198-0.54-0.4L0.112,170.387
			c-0.116-0.202-0.144-0.445-0.075-0.668c0.069-0.224,0.229-0.408,0.438-0.511l52.708-25.576l-9.361-9.509
			c-0.255-0.26-0.316-0.654-0.149-0.978c0.167-0.325,0.521-0.507,0.884-0.448l31.609,5.021c0.251,0.039,0.471,0.191,0.599,0.413
			c0.127,0.221,0.148,0.489,0.055,0.728l-11.633,29.817c-0.13,0.339-0.474,0.56-0.83,0.536c-0.364-0.021-0.676-0.271-0.769-0.622
			l-3.48-12.885l-48.692,32.578C11.274,188.376,11.111,188.425,10.945,188.425z"/>
	</g>
	<g>
		<path fill="#EC1C24" d="M44.358,106.308c-0.313,0-0.608-0.177-0.751-0.463c-0.166-0.325-0.102-0.719,0.155-0.978l9.425-9.448
			L0.645,69.501c-0.208-0.104-0.364-0.29-0.433-0.514c-0.068-0.225-0.041-0.467,0.08-0.669l10.214-17.547
			c0.116-0.202,0.313-0.347,0.543-0.397c0.228-0.052,0.468-0.007,0.658,0.124l48.48,32.894l3.564-12.86
			c0.097-0.351,0.409-0.599,0.773-0.617c0.364-0.017,0.699,0.2,0.829,0.542l11.436,29.893c0.091,0.238,0.07,0.505-0.058,0.726
			c-0.129,0.22-0.35,0.371-0.604,0.41l-31.642,4.813C44.444,106.305,44.402,106.308,44.358,106.308z"/>
	</g>
</g>
</svg>
