<?xml version="1.0" encoding="utf-8"?>
<!-- Generator: Adobe Illustrator 16.0.0, SVG Export Plug-In . SVG Version: 6.00 Build 0)  -->
<!DOCTYPE svg PUBLIC "-//W3C//DTD SVG 1.1//EN" "http://www.w3.org/Graphics/SVG/1.1/DTD/svg11.dtd">
<svg version="1.1" id="Layer_1" xmlns="http://www.w3.org/2000/svg" xmlns:xlink="http://www.w3.org/1999/xlink" x="0px" y="0px"
	 width="136.062px" height="147.401px" viewBox="0 0 136.062 147.401" enable-background="new 0 0 136.062 147.401"
	 xml:space="preserve">
<title>Five Pointed Star</title>
<g>
	<g>
		<path fill="#E73531" d="M-0.073-22.416c-0.155,0-0.301-0.07-0.397-0.189l-12.151-15.082c-0.14-0.171-0.152-0.413-0.031-0.598
			c0.12-0.186,0.345-0.272,0.558-0.216l7.81,2.052l-2.441-35.366c-0.01-0.142,0.039-0.28,0.136-0.384s0.232-0.162,0.373-0.162H6.07
			c0.141,0,0.276,0.059,0.373,0.163s0.146,0.242,0.136,0.384L4.138-36.449l7.81-2.052c0.214-0.055,0.438,0.031,0.558,0.216
			c0.121,0.185,0.107,0.426-0.031,0.598L0.324-22.605C0.228-22.485,0.082-22.416-0.073-22.416z"/>
	</g>
	<g>
		<path fill="#E73531" d="M38.963-8.026c-0.025,0-0.053-0.002-0.078-0.006l-19.134-2.996c-0.153-0.023-0.286-0.116-0.364-0.249
			c-0.076-0.134-0.089-0.296-0.033-0.44l6.999-18.058c0.079-0.206,0.285-0.336,0.502-0.325c0.221,0.011,0.408,0.163,0.466,0.376
			l2.123,7.791L58.865-41.71c0.115-0.079,0.262-0.105,0.4-0.072c0.137,0.031,0.257,0.119,0.327,0.242l6.135,10.644
			c0.071,0.123,0.087,0.269,0.047,0.404c-0.042,0.135-0.139,0.248-0.266,0.31L33.65-14.637l5.677,5.742
			c0.155,0.158,0.191,0.396,0.09,0.592C39.33-8.132,39.153-8.026,38.963-8.026z"/>
	</g>
	<g>
		<path fill="#E73531" d="M59.154,41.75c-0.102,0-0.202-0.029-0.289-0.087l-29.376-19.84l-2.139,7.785
			c-0.059,0.213-0.248,0.366-0.468,0.376c-0.219,0.01-0.422-0.121-0.501-0.327l-6.96-18.073c-0.054-0.145-0.041-0.307,0.036-0.44
			c0.078-0.134,0.211-0.226,0.365-0.249L38.96,7.941c0.218-0.032,0.434,0.077,0.534,0.273c0.1,0.196,0.063,0.435-0.094,0.592
			l-5.689,5.73l31.826,15.614c0.127,0.062,0.223,0.175,0.263,0.31c0.041,0.137,0.025,0.283-0.045,0.404l-6.16,10.631
			c-0.072,0.124-0.188,0.21-0.326,0.241C59.229,41.747,59.191,41.75,59.154,41.75z"/>
	</g>
	<g>
		<path fill="#E73531" d="M6.1,72.36L6.1,72.36l-12.287-0.026c-0.141,0-0.276-0.06-0.374-0.164
			c-0.096-0.103-0.145-0.241-0.135-0.383l2.52-35.361l-7.815,2.035c-0.213,0.056-0.438-0.031-0.558-0.217
			c-0.119-0.186-0.107-0.426,0.032-0.598l12.184-15.055c0.097-0.119,0.242-0.189,0.396-0.189h0.002c0.154,0,0.3,0.071,0.397,0.191
			l12.117,15.107c0.139,0.172,0.15,0.414,0.031,0.597c-0.121,0.186-0.345,0.271-0.56,0.215l-7.805-2.068l2.365,35.371
			c0.009,0.14-0.04,0.28-0.136,0.383C6.376,72.303,6.241,72.36,6.1,72.36z"/>
	</g>
	<g>
		<path fill="#E73531" d="M-59.2,41.655c-0.039,0-0.078-0.004-0.116-0.014c-0.139-0.032-0.256-0.12-0.327-0.242l-6.112-10.659
			c-0.07-0.122-0.087-0.27-0.045-0.405c0.042-0.136,0.139-0.247,0.265-0.309l31.894-15.477l-5.664-5.754
			c-0.154-0.157-0.191-0.396-0.09-0.592s0.315-0.306,0.535-0.271l19.126,3.038c0.151,0.024,0.285,0.116,0.362,0.25
			c0.077,0.134,0.089,0.296,0.033,0.441l-7.039,18.042c-0.079,0.206-0.287,0.34-0.502,0.325c-0.22-0.012-0.409-0.164-0.465-0.376
			l-2.105-7.796L-58.915,41.57C-59.001,41.625-59.1,41.655-59.2,41.655z"/>
	</g>
	<g>
		<path fill="#E73531" d="M-38.982-8.033c-0.189,0-0.368-0.107-0.455-0.281c-0.1-0.196-0.062-0.435,0.094-0.591l5.703-5.717
			l-31.793-15.683c-0.126-0.062-0.22-0.175-0.262-0.311c-0.041-0.136-0.025-0.282,0.049-0.405l6.18-10.617
			c0.07-0.123,0.189-0.21,0.329-0.24c0.138-0.032,0.283-0.004,0.398,0.075L-29.404-21.9l2.156-7.782
			c0.059-0.212,0.248-0.362,0.468-0.373c0.22-0.01,0.423,0.121,0.501,0.328l6.92,18.088c0.055,0.144,0.042,0.306-0.035,0.439
			c-0.078,0.133-0.212,0.224-0.366,0.248l-19.146,2.913C-38.93-8.035-38.956-8.033-38.982-8.033z"/>
	</g>
</g>
</svg>
